<svg xmlns="http://www.w3.org/2000/svg" viewBox="300 350 800 300" fill="#0a0908" stroke="none" aria-hidden="true">
  <path opacity="1" d=" M1095.175781,540.714478   C1092.999878,542.173035 1090.885864,543.197388 1089.030396,544.571167   C1064.806152,562.508423 1037.621948,570.704468 1007.580261,568.874878   C996.080261,568.174438 985.324097,564.980347 976.795715,556.363892   C975.750671,555.307983 972.628784,555.009338 971.254395,555.772827   C951.707458,566.631714 930.726440,570.424011 908.621582,569.088440   C899.056641,568.510498 890.238281,565.812439 883.034363,559.282959   C880.493591,556.979980 878.619080,557.163513 876.088562,559.007019   C869.936340,563.488831 863.228943,566.715088 855.439209,566.999939   C843.670349,567.430298 836.248047,562.015808 835.219727,550.348877   C834.321960,540.163269 835.266968,529.812256 835.466553,519.535645   C835.508484,517.379456 836.141968,515.205078 835.966431,513.083496   C835.814636,511.247650 834.901489,509.474792 834.324829,507.674133   C832.535950,508.337402 830.437866,508.605133 829.005676,509.724670   C813.437134,521.894653 801.793640,537.456482 791.221924,553.919312   C790.772278,554.619629 790.361023,555.344482 789.929321,556.056396   C783.728699,566.281555 780.153748,568.004089 768.218201,565.699524   C766.762390,565.418335 764.966736,563.121338 764.669128,561.510864   C764.233887,559.155396 765.011230,556.575745 765.387939,553.561646   C765.212341,552.912476 764.920654,552.793274 764.628967,552.674072   C760.899963,555.737793 757.483398,559.344971 753.356750,561.716919   C748.977234,564.234192 744.064575,566.483887 739.135864,567.250793   C728.236816,568.946655 719.877319,561.725647 719.076843,550.712769   C718.791199,546.782776 719.031067,542.814575 719.031067,537.530640   C717.154785,539.223206 716.394470,539.930481 715.611694,540.612000   C707.233459,547.906250 699.155273,555.589905 690.375000,562.363342   C683.340332,567.790039 674.848938,569.560425 665.836914,569.250122   C653.994873,568.842407 647.397217,563.530334 645.079346,551.763245   C644.863342,550.666870 644.554749,549.588745 644.059143,547.561646   C642.347412,548.931274 641.097717,549.829102 639.963623,550.854736   C630.126282,559.750854 619.315918,567.173279 607.092407,572.408508   C596.320618,577.021973 585.143250,579.139160 573.433777,577.245117   C555.475281,574.340393 546.177795,565.187683 542.839783,547.200256   C540.604553,535.154785 540.202698,523.059326 542.288513,510.538177   C543.465759,510.764252 544.304993,511.365845 545.144165,511.967407   C547.855652,517.805908 549.755432,524.227356 553.444458,529.363708   C561.585999,540.699341 577.195801,543.441040 590.187622,536.520935   C609.520569,526.223206 617.758362,508.874329 619.825562,488.102478   C620.782715,478.484894 620.260803,468.748260 615.935486,459.761902   C614.514893,456.810577 612.410339,454.188538 610.189453,451.017365   C609.504578,450.390015 609.248840,450.161194 608.993164,449.932373   C599.300110,441.389191 583.172729,441.647064 572.023682,450.561157   C570.095703,452.102692 568.282288,453.787537 565.948608,455.778076   C565.009827,456.452148 564.538330,456.754272 564.066833,457.056396   C556.734741,462.181091 549.640198,467.698029 542.005005,472.322144   C534.083984,477.119415 525.707703,481.190887 517.386719,485.287659   C514.479492,486.719055 512.793396,487.701111 515.272705,491.013855   C521.840393,499.789307 526.010803,509.697723 528.753601,521.039124   C529.297058,523.521851 529.642700,525.285828 529.988403,527.049744   C529.988403,527.049744 529.999084,527.003113 529.995300,527.459351   C529.686523,535.904419 529.381531,543.893250 529.076538,551.882141   C525.516113,560.801819 523.053833,570.381042 518.173462,578.508118   C506.983978,597.141602 489.956421,608.997925 469.118652,614.668518   C432.646393,624.593689 398.968689,617.859741 369.054321,594.941956   C351.516815,581.506226 339.168732,563.830017 332.034302,542.324707   C330.689728,537.226868 329.473694,532.475464 328.130768,526.970276   C327.679810,524.469727 327.355743,522.723022 327.031677,520.976318   C327.031677,520.976318 326.992950,521.003540 327.038696,520.534912   C327.279053,510.256439 325.629120,500.303162 328.987823,489.326721   C330.564606,495.193756 331.754913,499.622681 332.971802,504.035522   C332.998413,504.019409 332.952301,503.977661 332.984894,504.306580   C333.336304,505.442780 333.655151,506.250092 333.992981,507.030579   C334.011993,507.003723 333.953156,506.974365 333.974731,507.287994   C334.059479,508.015137 334.122650,508.428650 334.298706,509.151276   C335.030762,510.623444 335.649933,511.786530 336.241516,513.302856   C336.190582,514.127930 336.167297,514.599670 336.252411,515.272339   C336.540405,515.722107 336.742065,515.951660 336.991913,516.377380   C337.018036,516.593018 337.064056,517.025085 337.177277,517.216553   C337.467804,517.652161 337.686829,517.850159 337.937134,518.027771   C337.926758,518.053467 337.981995,518.048767 338.055756,518.330688   C338.397827,519.130310 338.666107,519.647949 339.024048,520.428223   C339.378845,521.176270 339.644012,521.661682 340.018005,522.478882   C345.331238,534.163940 352.865509,543.810669 361.812500,552.423767   C391.789368,581.282104 439.516510,584.010986 471.539612,558.524719   C483.440857,549.052856 491.865021,537.442627 491.931610,521.392578   C491.986786,508.084595 484.837646,498.039612 472.351868,494.188904   C470.984100,494.102936 469.987305,494.049164 468.608276,493.932281   C466.427155,493.677246 464.628296,493.485321 462.576111,493.332397   C461.848938,493.564331 461.375092,493.757233 460.560669,493.965149   C459.767029,494.016388 459.313965,494.052582 458.523621,494.100342   C457.107391,494.403839 456.028473,494.695770 454.976715,495.000824   C455.003906,495.013947 455.036316,494.963013 454.672150,494.998169   C453.379486,495.350372 452.451019,495.667419 451.408234,495.969849   C451.293945,495.955261 451.063904,495.968872 450.759827,495.998474   C450.053436,496.082001 449.651123,496.135925 448.899902,496.286499   C445.698059,497.557037 442.845062,498.730988 439.975006,499.928711   C439.957916,499.952515 440.015625,499.962555 439.685150,500.032410   C438.741516,500.392120 438.128326,500.681976 437.419708,500.947968   C437.324249,500.924133 437.127563,500.928802 436.783997,501.005829   C435.802002,501.378876 435.163544,501.674896 434.405823,501.958740   C434.286530,501.946625 434.047882,501.970123 433.731934,502.045715   C432.829285,502.400360 432.242554,502.679443 431.486450,502.965302   C431.317017,502.972107 430.980774,503.016022 430.645721,502.952332   C429.872681,502.761627 429.434723,502.634644 428.937927,502.402832   C428.879150,502.298065 428.510223,501.996613 428.342468,501.724426   C427.784332,500.951355 427.393921,500.450439 426.997009,499.977844   C426.990509,500.006226 427.046814,500.021118 426.966614,499.738770   C426.593658,498.952026 426.300842,498.447662 426.000732,497.970703   C425.993378,497.998169 426.043152,498.025574 426.004852,497.801086   C425.966553,497.576599 425.867706,497.132050 425.703430,496.828796   C421.964722,488.850342 418.287964,481.220215 414.873230,473.474609   C413.729248,470.879761 413.685425,468.324005 417.315765,467.122223   C425.965363,464.258911 434.759857,461.687744 443.108337,458.097595   C453.310577,453.710205 462.465546,447.413269 468.445312,437.762451   C476.548035,424.685364 469.441559,411.059998 454.195038,411.221497   C446.930237,411.298462 439.265106,413.068787 432.530884,415.872467   C416.454956,422.565430 403.433685,433.739136 391.638367,446.892883   C388.846771,449.929810 386.129974,450.919952 382.994446,448.012024   C377.503510,440.135193 372.062561,432.222870 366.505646,424.392853   C362.152740,418.259399 361.912354,418.107391 367.610321,412.938507   C390.731384,391.964600 417.538330,379.946442 449.170959,379.998749   C451.481781,380.002563 453.791931,380.402710 456.917053,380.756042   C481.055420,384.518036 495.930817,401.199829 496.276825,423.360657   C496.537811,440.076965 489.081879,453.058014 477.971954,464.572601   C476.547028,466.049438 475.217621,467.618408 473.326874,469.719177   C475.413483,470.378662 476.591370,470.940613 477.823212,471.110321   C487.857178,472.492432 497.252991,470.283630 505.158417,464.195251   C512.099731,458.849396 518.265686,452.476074 524.624329,446.399963   C531.709290,439.629822 538.050110,431.946320 545.724548,425.953522   C567.010437,409.331818 590.259888,406.610535 614.263245,419.582458   C620.264648,422.825745 627.142639,426.099182 630.361816,433.364746   C630.635193,433.702515 630.814514,433.875336 631.103271,434.364929   C631.708130,435.547058 632.164368,436.435669 632.730530,437.247711   C641.715027,450.134583 646.574585,464.317535 647.276550,480.112457   C647.916382,494.510834 645.342346,508.259369 640.725586,521.838135   C640.748962,522.155273 640.894775,522.237122 641.421753,521.976440   C657.464539,508.277710 673.224915,494.760895 689.252319,481.104462   C690.024414,480.643372 690.529541,480.321869 691.015747,479.990753   C690.996826,479.981140 690.995056,480.023621 691.195923,479.884155   C691.656067,479.539703 691.866760,479.293182 692.007690,478.992737   C691.986511,478.980316 691.995483,479.028687 692.274048,478.949829   C693.051025,478.583435 693.549377,478.295868 694.023193,477.998169   C693.998596,477.988007 693.996338,478.041107 694.197449,477.897949   C694.648438,477.535919 694.857727,477.283417 695.274048,476.841614   C696.020020,476.378906 696.518372,476.071869 697.016724,475.764832   C698.814880,475.009552 700.612976,474.254242 703.019165,473.230621   C704.239563,472.646790 704.851990,472.331238 705.464417,472.015686   C705.464417,472.015717 705.761230,472.010742 706.173645,471.907501   C707.073059,471.535828 707.560059,471.267395 708.047058,470.999023   C708.047058,470.999023 707.996582,470.987183 708.310791,470.959473   C709.435486,470.624298 710.245972,470.316803 711.056458,470.009308   C711.056458,470.009308 711.002930,469.997498 711.315308,469.977356   C712.431763,469.645355 713.235779,469.333435 714.039795,469.021545   C714.039795,469.021515 713.996948,468.982880 714.428223,469.005859   C723.991821,467.305237 733.045288,467.666931 742.022095,470.056427   C742.022095,470.056427 742.017944,469.993439 742.105225,470.160645   C742.372131,470.545715 742.590942,470.711884 742.848938,470.826355   C743.025391,470.858673 743.201904,470.890961 743.881348,471.160706   C744.929810,471.682007 745.475342,471.965912 746.020813,472.249817   C746.230408,472.467743 746.469299,472.646423 747.149658,473.055634   C748.035889,473.593048 748.510071,473.860718 749.201782,474.378784   C752.285278,478.887848 756.504639,482.601196 755.372070,489.002808   C754.060303,488.659454 753.069580,488.577118 752.250122,488.159088   C739.874756,481.846069 727.476929,482.533264 715.202698,488.260986   C698.981873,495.830383 686.971741,508.232880 677.484192,523.007568   C674.351379,527.886230 672.275513,533.869080 671.326721,539.613098   C670.231934,546.241089 674.690247,549.560303 681.230713,548.034302   C683.787109,547.437805 686.395325,546.497681 688.617798,545.126953   C703.882446,535.712585 714.516113,522.368225 721.144653,505.807007   C725.004944,496.162231 726.973938,494.733948 737.434631,495.258636   C739.926086,495.383606 742.400391,495.818817 744.889038,496.037384   C749.308838,496.425598 750.604065,498.949432 749.580811,502.946320   C748.672546,506.493774 747.355652,509.952484 746.662476,513.536133   C744.679932,523.785217 742.252197,534.017517 741.318787,544.375305   C740.721985,550.997681 745.740051,553.330872 750.739380,549.224060   C760.215881,541.439575 768.872070,532.744080 771.884216,520.289307   C774.817200,508.162262 777.167114,495.894257 779.814331,483.521698   C779.855591,483.355286 779.939453,483.022766 780.127930,482.861481   C780.562195,482.477905 780.791138,482.239502 781.237305,481.835083   C781.754944,481.443665 782.038635,481.202118 782.510132,480.969910   C782.697815,480.979218 783.073242,480.960907 783.500916,480.948975   C790.954651,480.631714 797.980652,480.326416 805.163879,480.372620   C805.233215,483.136261 805.630859,485.690216 804.974304,487.936035   C801.997009,498.120575 798.705872,508.213135 795.571594,518.352417   C795.079712,519.943604 794.814331,521.604736 794.551208,522.762756   C807.725037,509.531708 820.866821,496.332886 834.283569,483.034668   C835.049744,482.625793 835.540955,482.316315 836.032166,482.006836   C836.032166,482.006836 835.983276,481.974945 836.254883,481.910095   C837.034058,481.561096 837.541626,481.276978 838.049133,480.992859   C838.049133,480.992859 837.993103,480.981659 838.264526,480.918945   C839.046265,480.566925 839.556519,480.277679 840.066772,479.988434   C840.066772,479.988434 839.991943,479.979858 840.288818,479.987274   C841.007385,479.949554 841.429016,479.904449 841.850647,479.859314   C842.399841,479.668579 842.948975,479.477783 844.203979,479.114075   C847.949524,478.970276 850.989319,478.999420 854.029053,479.028564   C854.029053,479.028534 854.010620,478.968079 854.189758,479.195496   C854.916809,479.633850 855.464783,479.844788 856.012695,480.055725   C857.171631,480.918701 858.330627,481.781647 859.930237,483.139038   C861.123962,488.975128 862.804077,494.384857 862.418274,499.642975   C861.799744,508.073608 859.312622,516.359375 858.561523,524.790588   C857.950256,531.652344 858.072876,538.736145 859.098572,545.536194   C859.879822,550.716125 864.524231,552.045288 870.809937,550.544617   C875.649109,549.389343 876.524597,546.702332 875.668579,542.047546   C874.964478,538.219299 875.132568,534.052551 875.789490,530.184448   C878.096924,516.596191 885.936462,506.154816 895.555054,496.805969   C897.810669,494.613678 899.839661,492.188263 901.972900,489.870087   C909.451599,485.754669 916.930298,481.639282 925.019287,477.270020   C926.443359,476.679199 927.257080,476.342285 928.070862,476.005341   C928.070862,476.005341 927.997986,475.991760 928.369751,475.987549   C930.757446,475.589722 932.773254,475.196045 934.789124,474.802368   C935.348877,474.631683 935.908569,474.460999 937.166748,474.146912   C940.156860,473.916412 942.448608,473.829376 944.740295,473.742340   C946.918091,473.788239 949.095886,473.834137 952.120667,473.887177   C953.991699,473.943207 955.015686,473.992065 956.039734,474.040924   C956.039734,474.040924 956.008667,473.979584 956.241150,474.175262   C957.294983,474.568512 958.116333,474.766083 958.937683,474.963654   C958.937683,474.963654 959.227783,474.996368 959.578003,475.173340   C960.244629,475.527863 960.561096,475.705383 960.877502,475.882904   C965.217896,477.255676 968.576172,479.659576 970.135681,484.195526   C971.610046,488.483612 970.141052,490.577362 965.792969,489.610626   C942.602417,484.454254 925.712769,494.732300 912.001465,511.938202   C906.303284,519.088684 902.822937,527.516663 904.765808,537.058899   C906.583679,545.987366 914.884827,552.263428 925.294861,552.983215   C939.571045,553.970398 953.132690,551.029297 966.023926,545.078064   C967.650574,544.327087 969.609863,541.598022 969.419312,540.027588   C967.540161,524.540955 973.246887,511.468384 982.381653,499.777100   C987.028625,493.829529 993.054138,488.958984 998.999878,483.303070   C1000.030457,482.669983 1000.517700,482.335388 1001.004944,482.000732   C1001.253967,481.862976 1001.485474,481.700287 1002.119629,481.236633   C1003.043274,480.643158 1003.546692,480.325745 1004.050171,480.008331   C1004.050171,480.008331 1003.993591,479.989594 1004.208252,479.894653   C1004.703735,479.609009 1004.900269,479.353455 1005.012634,479.033112   C1005.012634,479.033112 1005.012207,479.017456 1005.303589,478.980225   C1006.066467,478.640961 1006.537964,478.338989 1007.009399,478.036987   C1007.009399,478.036987 1007.014648,478.025726 1007.349365,477.976654   C1008.282837,477.630676 1008.881592,477.333771 1009.480286,477.036835   C1009.480286,477.036835 1009.736633,477.042847 1010.141235,476.943665   C1011.049133,476.565826 1011.552429,476.287109 1012.055725,476.008423   C1012.055725,476.008453 1012.000305,475.999969 1012.271301,475.954651   C1013.031677,475.616669 1013.520996,475.324036 1014.010376,475.031372   C1014.010376,475.031372 1014.102234,475.109711 1014.535522,475.055725   C1024.294312,472.414948 1033.639282,471.875214 1043.016968,474.732361   C1057.024414,481.784119 1060.273315,498.618896 1050.256592,512.152100   C1041.794922,523.584351 1030.347168,531.105469 1017.664795,536.968872   C1012.902588,539.170593 1008.019348,541.110413 1003.191284,543.169617   C1003.084106,543.731323 1002.976868,544.292969 1002.869690,544.854675   C1006.282471,546.567017 1009.531677,548.842896 1013.137634,549.890137   C1025.883423,553.591858 1038.867432,552.889160 1051.677979,550.382812   C1065.913330,547.597595 1079.766724,543.432861 1092.566284,536.318604   C1093.810425,535.627014 1095.274536,535.331482 1098.052124,534.353821   C1096.813965,537.152161 1096.085938,538.797424 1095.175781,540.714478  M995.554138,530.164246   C997.356018,530.130554 999.558289,530.757080 1000.890564,529.949097   C1006.700684,526.425232 1012.527161,522.823730 1017.839355,518.609558   C1024.530273,513.301514 1030.331055,507.067871 1032.864990,498.538361   C1034.908325,491.660706 1031.246460,487.295227 1024.141968,488.220734   C1022.518494,488.432220 1020.900024,488.984955 1019.376892,489.616119   C1005.139954,495.515350 993.955811,514.051147 995.554138,530.164246  z"/>
</svg>
