<svg xmlns="http://www.w3.org/2000/svg" viewBox="0 0 32 32" width="512" height="512">
  <rect width="32" height="32" fill="#0a0908"/>
  <g transform="translate(2,11) scale(0.035)">
    <path fill="#e8e4df" d="M1095.18,540.71 C1093,542.17 1090.89,543.2 1089.03,544.57 C1064.81,562.51 1037.62,570.7 1007.58,568.87 C996.08,568.17 985.32,564.98 976.8,556.36 C975.75,555.31 972.63,555.01 971.25,555.77 C951.71,566.63 930.73,570.42 908.62,569.09 C899.06,568.51 890.24,565.81 883.03,559.28 C880.49,556.98 878.62,557.16 876.09,559.01 C869.94,563.49 863.23,566.72 855.44,567 C843.67,567.43 836.25,562.02 835.22,550.35 C834.32,540.16 835.27,529.81 835.47,519.54 C835.51,517.38 836.14,515.21 835.97,513.08 C835.81,511.25 834.9,509.47 834.32,507.67 C832.54,508.34 830.44,508.61 829.01,509.73 C813.44,521.89 801.79,537.46 791.22,553.92 C790.77,554.62 790.36,555.34 789.93,556.06 C783.73,566.28 780.15,568 768.22,565.7 C766.76,565.42 764.97,563.12 764.67,561.51 C764.23,559.16 765.01,556.58 765.39,553.56 C765.21,552.91 764.92,552.79 764.63,552.67 C760.9,555.74 757.48,559.34 753.36,561.72 C748.98,564.23 744.06,566.48 739.14,567.25 C728.24,568.95 719.88,561.73 719.08,550.71 C718.79,546.78 719.03,542.81 719.03,537.53 C717.15,539.22 716.39,539.93 715.61,540.61 C707.23,547.91 699.16,555.59 690.38,562.36 C683.34,567.79 674.85,569.56 665.84,569.25 C653.99,568.84 647.4,563.53 645.08,551.76 C644.86,550.67 644.55,549.59 644.06,547.56 C642.35,548.93 641.1,549.83 639.96,550.85 C630.13,559.75 619.32,567.17 607.09,572.41 C596.32,577.02 585.14,579.14 573.43,577.25 C555.48,574.34 546.18,565.19 542.84,547.2 C540.6,535.15 540.2,523.06 542.29,510.54 C543.47,510.76 544.3,511.37 545.14,511.97 C547.86,517.81 549.76,524.23 553.44,529.36 C561.59,540.7 577.2,543.44 590.19,536.52 C609.52,526.22 617.76,508.87 619.83,488.1 C620.78,478.48 620.26,468.75 615.94,459.76 C614.51,456.81 612.41,454.19 610.19,451.02 C609.5,450.39 609.25,450.16 608.99,449.93 C599.3,441.39 583.17,441.65 572.02,450.56 C570.1,452.1 568.28,453.79 565.95,455.78 C565.01,456.45 564.54,456.75 564.07,457.06 C556.73,462.18 549.64,467.7 542.01,472.32 C534.08,477.12 525.71,481.19 517.39,485.29 C514.48,486.72 512.79,487.7 515.27,491.01 C521.84,499.79 526.01,509.7 528.75,521.04 C529.3,523.52 529.64,525.29 529.99,527.05 C529.99,527.05 530,527 529.99,527.46 C529.69,535.9 529.38,543.89 529.08,551.88 C525.52,560.8 523.05,570.38 518.17,578.51 C506.98,597.14 489.96,609 469.12,614.67 C432.65,624.59 398.97,617.86 369.05,594.94 C351.52,581.51 339.17,563.83 332.03,542.32 C330.69,537.23 329.47,532.48 328.13,526.97 C327.68,524.47 327.36,522.72 327.03,520.98 C327.03,520.98 326.99,521 327.04,520.53 C327.28,510.26 325.63,500.3 328.99,489.33 C330.56,495.19 331.75,499.62 332.97,504.04 C332.99,504.02 332.95,503.98 332.98,504.31 C333.34,505.44 333.66,506.25 333.99,507.03 C334.01,507 333.95,506.97 333.97,507.29 C334.06,508.02 334.12,508.43 334.3,509.15 C335.03,510.62 335.65,511.79 336.24,513.3 C336.19,514.13 336.17,514.6 336.25,515.27 C336.54,515.72 336.74,515.95 336.99,516.38 C337.02,516.59 337.06,517.03 337.18,517.22 C337.47,517.65 337.69,517.85 337.94,518.03 C337.93,518.05 337.98,518.05 338.06,518.33 C338.4,519.13 338.67,519.65 339.02,520.43 C339.38,521.18 339.64,521.66 340.02,522.48 C345.33,534.16 352.87,543.81 361.81,552.42 C391.79,581.28 439.52,584.01 471.54,558.52 C483.44,549.05 491.87,537.44 491.93,521.39 C491.99,508.08 484.84,498.04 472.35,494.19 C470.98,494.1 469.99,494.05 468.61,493.93 C466.43,493.68 464.63,493.49 462.58,493.33 C461.85,493.56 461.38,493.76 460.56,493.97 C459.77,494.02 459.31,494.05 458.52,494.1 C457.11,494.4 456.03,494.7 454.98,495 C455,495.01 455.04,494.96 454.67,495 C453.38,495.35 452.45,495.67 451.41,495.97 C451.29,495.95 451.06,495.97 450.76,496 C450.05,496.08 449.65,496.14 448.9,496.29 C445.7,497.56 442.85,498.73 439.98,499.93 C439.96,499.95 440.02,499.96 439.69,500.03 C438.74,500.39 438.13,500.68 437.42,500.95 C437.32,500.92 437.13,500.93 436.78,501 C435.8,501.38 435.16,501.67 434.41,501.96 C434.29,501.95 434.05,501.97 433.73,502.05 C432.83,502.4 432.24,502.68 431.49,502.97 C431.32,502.97 430.98,503.02 430.65,502.95 C429.87,502.76 429.43,502.63 428.94,502.4 C428.88,502.3 428.51,502 428.34,501.72 C427.78,500.95 427.39,500.45 427,499.98 C426.99,500.01 427.05,500.02 426.97,499.74 C426.59,498.95 426.3,498.45 426,497.97 C425.99,498 426.04,498.03 426,497.8 C425.97,497.58 425.87,497.13 425.7,496.83 C421.96,488.85 418.29,481.22 414.87,473.47 C413.73,470.88 413.69,468.32 417.32,467.12 C425.97,464.26 434.76,461.69 443.11,458.1 C453.31,453.71 462.47,447.41 468.45,437.76 C476.55,424.69 469.44,411.06 454.2,411.22 C446.93,411.3 439.27,413.07 432.53,415.87 C416.45,422.57 403.43,433.74 391.64,446.89 C388.85,449.93 386.13,450.92 382.99,448.01 C377.5,440.14 372.06,432.22 366.51,424.39 C362.15,418.26 361.91,418.11 367.61,412.94 C390.73,391.96 417.54,379.95 449.17,380 C451.48,380 453.79,380.4 456.92,380.76 C481.06,384.52 495.93,401.2 496.28,423.36 C496.54,440.08 489.08,453.06 477.97,464.57 C476.55,466.05 475.22,467.62 473.33,469.72 C475.41,470.38 476.59,470.94 477.82,471.11 C487.86,472.49 497.25,470.28 505.16,464.2 C512.1,458.85 518.27,452.48 524.62,446.4 C531.71,439.63 538.05,431.95 545.72,425.95 C567.01,409.33 590.26,406.61 614.26,419.58 C620.26,422.83 627.14,426.1 630.36,433.36 C630.64,433.7 630.81,433.88 631.1,434.36 C631.71,435.55 632.16,436.44 632.73,437.25 C641.72,450.13 646.57,464.32 647.28,480.11 C647.92,494.51 645.34,508.26 640.73,521.84 C640.75,522.16 640.89,522.24 641.42,521.98 C657.46,508.28 673.22,494.76 689.25,481.1 C690.02,480.64 690.53,480.32 691.02,479.99 C691,479.98 691,480.02 691.2,479.88 C691.66,479.54 691.87,479.29 692.01,478.99 C691.99,478.98 691.99,479.03 692.27,478.95 C693.05,478.58 693.55,478.3 694.02,478 C693.99,477.99 694,478.04 694.2,477.9 C694.65,477.54 694.86,477.28 695.27,476.84 C696.02,476.38 696.52,476.07 697.02,475.76 C698.81,475.01 700.61,474.25 703.02,473.23 C704.24,472.65 704.85,472.33 705.46,472.02 C705.46,472.02 705.76,472.01 706.17,471.91 C707.07,471.54 707.56,471.27 708.05,471 C708.05,471 708,470.99 708.31,470.96 C709.44,470.62 710.25,470.32 711.06,470.01 C711.06,470.01 711,469.99 711.32,469.98 C712.43,469.65 713.24,469.33 714.04,469.02 C714.04,469.02 714,468.98 714.43,469 C723.99,467.31 733.05,467.67 742.02,470.06 C742.02,470.06 742.02,469.99 742.11,470.16 C742.37,470.55 742.59,470.71 742.85,470.83 C743.03,470.86 743.2,470.89 743.88,471.16 C744.93,471.68 745.48,471.97 746.02,472.25 C746.23,472.47 746.47,472.65 747.15,473.06 C748.04,473.59 748.51,473.86 749.2,474.38 C752.29,478.89 756.5,482.6 755.37,489 C754.06,488.66 753.07,488.58 752.25,488.16 C739.87,481.85 727.48,482.53 715.2,488.26 C698.98,495.83 686.97,508.23 677.48,523.01 C674.35,527.89 672.28,533.87 671.33,539.61 C670.23,546.24 674.69,549.56 681.23,548.03 C683.79,547.44 686.4,546.5 688.62,545.13 C703.88,535.71 714.52,522.37 721.14,505.81 C725,496.16 726.97,494.73 737.43,495.26 C739.93,495.38 742.4,495.82 744.89,496.04 C749.31,496.43 750.6,498.95 749.58,502.95 C748.67,506.49 747.36,509.95 746.66,513.54 C744.68,523.79 742.25,534.02 741.32,544.38 C740.72,551 745.74,553.33 750.74,549.22 C760.22,541.44 768.87,532.74 771.88,520.29 C774.82,508.16 777.17,495.89 779.81,483.52 C779.86,483.36 779.94,483.02 780.13,482.86 C780.56,482.48 780.79,482.24 781.24,481.84 C781.75,481.44 782.04,481.2 782.51,480.97 C782.7,480.98 783.07,480.96 783.5,480.95 C790.95,480.63 797.98,480.33 805.16,480.37 C805.23,483.14 805.63,485.69 804.97,487.94 C802,498.12 798.71,508.21 795.57,518.35 C795.08,519.94 794.81,521.6 794.55,522.76 C807.73,509.53 820.87,496.33 834.28,483.03 C835.05,482.63 835.54,482.32 836.03,482.01 C836.03,482.01 835.98,481.97 836.25,481.91 C837.03,481.56 837.54,481.28 838.05,480.99 C838.05,480.99 837.99,480.98 838.26,480.92 C839.05,480.57 839.56,480.28 840.07,479.99 C840.07,479.99 839.99,479.98 840.29,479.99 C841.01,479.95 841.43,479.9 841.85,479.86 C842.4,479.67 842.95,479.48 844.2,479.11 C847.95,478.97 850.99,479 854.03,479.03 C854.03,479.03 854.01,478.97 854.19,479.2 C854.92,479.63 855.46,479.84 856.01,480.06 C857.17,480.92 858.33,481.78 859.93,483.14 C861.12,488.98 862.8,494.38 862.42,499.64 C861.8,508.07 859.31,516.36 858.56,524.79 C857.95,531.65 858.07,538.74 859.1,545.54 C859.88,550.72 864.52,552.05 870.81,550.54 C875.65,549.39 876.52,546.7 875.67,542.05 C874.96,538.22 875.13,534.05 875.79,530.18 C878.1,516.6 885.94,506.15 895.56,496.81 C897.81,494.61 899.84,492.19 901.97,489.87 C909.45,485.75 916.93,481.64 925.02,477.27 C926.44,476.68 927.26,476.34 928.07,476 C928.07,476 928,475.99 928.37,475.99 C930.76,475.59 932.77,475.2 934.79,474.8 C935.35,474.63 935.91,474.46 937.17,474.15 C940.16,473.92 942.45,473.83 944.74,473.74 C946.92,473.79 949.1,473.83 952.12,473.89 C953.99,473.94 955.02,473.99 956.04,474.04 C956.04,474.04 956.01,473.98 956.24,474.18 C957.29,474.57 958.12,474.77 958.94,474.96 C958.94,474.96 959.23,475 959.58,475.17 C960.24,475.53 960.56,475.71 960.88,475.88 C965.22,477.26 968.58,479.66 970.14,484.2 C971.61,488.48 970.14,490.58 965.79,489.61 C942.6,484.45 925.71,494.73 912,511.94 C906.3,519.09 902.82,527.52 904.77,537.06 C906.58,545.99 914.88,552.26 925.29,552.98 C939.57,553.97 953.13,551.03 966.02,545.08 C967.65,544.33 969.61,541.6 969.42,540.03 C967.54,524.54 973.25,511.47 982.38,499.78 C987.03,493.83 993.05,488.96 999,483.3 C1000.03,482.67 1000.52,482.34 1001.01,482 C1001.25,481.86 1001.49,481.7 1002.12,481.24 C1003.04,480.64 1003.55,480.33 1004.05,480.01 C1004.05,480.01 1003.99,479.99 1004.21,479.89 C1004.7,479.61 1004.9,479.35 1005.01,479.03 C1005.01,479.03 1005.01,479.02 1005.3,478.98 C1006.07,478.64 1006.54,478.34 1007.01,478.04 C1007.01,478.04 1007.01,478.03 1007.35,477.98 C1008.28,477.63 1008.88,477.33 1009.48,477.04 C1009.48,477.04 1009.74,477.04 1010.14,476.94 C1011.05,476.57 1011.55,476.29 1012.06,476.01 C1012.06,476.01 1012,476 1012.27,475.95 C1013.03,475.62 1013.52,475.32 1014.01,475.03 C1014.01,475.03 1014.1,475.11 1014.54,475.06 C1024.29,472.41 1033.64,471.88 1043.02,474.73 C1057.02,481.78 1060.27,498.62 1050.26,512.15 C1041.79,523.58 1030.35,531.11 1017.66,536.97 C1012.9,539.17 1008.02,541.11 1003.19,543.17 C1003.08,543.73 1002.98,544.29 1002.87,544.85 C1006.28,546.57 1009.53,548.84 1013.14,549.89 C1025.88,553.59 1038.87,552.89 1051.68,550.38 C1065.91,547.6 1079.77,543.43 1092.57,536.32 C1093.81,535.63 1095.27,535.33 1098.05,534.35 C1096.81,537.15 1096.09,538.8 1095.18,540.71 M995.55,530.16 C997.36,530.13 999.56,530.76 1000.89,529.95 C1006.7,526.43 1012.53,522.82 1017.84,518.61 C1024.53,513.3 1030.33,507.07 1032.86,498.54 C1034.91,491.66 1031.25,487.3 1024.14,488.22 C1022.52,488.43 1020.9,488.98 1019.38,489.62 C1005.14,495.52 993.96,514.05 995.55,530.16 z"/>
  </g>
</svg>
